<svg width="40" height="40" viewBox="0 0 40 40" fill="none" xmlns="http://www.w3.org/2000/svg">
<circle cx="20" cy="20" r="20" fill="white"/>
<path d="M27.3675 11.1218C27.105 11.134 26.8579 11.2103 26.6381 11.2958H26.6351C26.4123 11.3843 25.3533 11.8298 23.7451 12.5043C22.1368 13.1818 20.0494 14.0607 17.9772 14.9335C13.8391 16.676 9.77106 18.3911 9.77106 18.3911L9.81989 18.3728C9.81989 18.3728 9.53913 18.4643 9.24616 18.6658C9.09662 18.7634 8.93183 18.8977 8.7884 19.1083C8.64496 19.3188 8.529 19.6423 8.57172 19.975C8.64191 20.5395 9.00812 20.8783 9.27057 21.0644C9.53608 21.2537 9.78937 21.3422 9.78937 21.3422H9.79548L13.6102 22.6269C13.7811 23.1763 14.7729 26.4355 15.0109 27.1863C15.1513 27.6349 15.2886 27.9156 15.4595 28.1293C15.5419 28.2391 15.6396 28.3307 15.7556 28.4039C15.8013 28.4314 15.8502 28.4527 15.899 28.4711C15.9143 28.4802 15.9295 28.4833 15.9478 28.4863L15.9081 28.4772C15.9204 28.4802 15.9295 28.4894 15.9387 28.4924C15.9692 28.5016 15.9905 28.5046 16.0302 28.5107C16.6345 28.6938 17.1197 28.3185 17.1197 28.3185L17.1472 28.2971L19.3994 26.2463L23.1744 29.1424L23.2598 29.1791C24.0472 29.5239 24.8437 29.3317 25.2648 28.9929C25.689 28.6511 25.8538 28.2147 25.8538 28.2147L25.8813 28.1445L28.7988 13.2001C28.8812 12.8308 28.9025 12.486 28.811 12.1503C28.7194 11.8146 28.4844 11.5002 28.2006 11.3324C27.9138 11.1615 27.6299 11.1096 27.3675 11.1218ZM27.2882 12.724C27.2851 12.7728 27.2943 12.7667 27.2729 12.8613V12.8705L24.3829 27.6593C24.3707 27.6807 24.3493 27.7264 24.2913 27.7722C24.2303 27.821 24.1815 27.8516 23.9282 27.7508L19.3109 24.2108L16.5216 26.7529L17.1075 23.0115C17.1075 23.0115 24.3402 16.2701 24.6514 15.9802C24.9627 15.6903 24.859 15.6293 24.859 15.6293C24.8803 15.2753 24.389 15.5255 24.389 15.5255L14.8767 21.4184L14.8736 21.4032L10.3143 19.8682V19.8651C10.3112 19.8651 10.3051 19.8621 10.3021 19.8621C10.3051 19.8621 10.3265 19.8529 10.3265 19.8529L10.3509 19.8407L10.3753 19.8315C10.3753 19.8315 14.4464 18.1164 18.5845 16.3739C20.6567 15.5011 22.7441 14.6222 24.3493 13.9447C25.9545 13.2703 27.1417 12.7759 27.2088 12.7484C27.2729 12.724 27.2424 12.724 27.2882 12.724Z" fill="black"/>
</svg>
