<svg width="40" height="40" viewBox="0 0 40 40" fill="none" xmlns="http://www.w3.org/2000/svg">
<circle cx="20" cy="20" r="20" fill="white"/>
<path d="M28.6362 9H12.3638C9.95756 9 8 11.3498 8 14.238V25.4054C8 28.2936 9.95756 30.6433 12.3638 30.6433H28.6363C31.0424 30.6433 33 28.2936 33 25.4054V14.238C32.9999 11.3498 31.0423 9 28.6362 9ZM31.2114 25.4053C31.2114 27.1101 30.0561 28.4969 28.6362 28.4969H12.3638C10.9437 28.4969 9.78849 27.1101 9.78849 25.4053V14.2379C9.78849 12.5331 10.9437 11.1462 12.3638 11.1462H28.6363C30.0563 11.1462 31.2115 12.5331 31.2115 14.2379L31.2114 25.4053Z" fill="black"/>
<path d="M25.3002 18.9249L18.6713 13.6811C18.3968 13.4637 18.0449 13.4451 17.7552 13.6321C17.4655 13.8193 17.2849 14.1823 17.2849 14.577V25.0661C17.2849 25.4608 17.4655 25.8237 17.7552 26.011C17.8879 26.0968 18.0337 26.1392 18.179 26.1392C18.351 26.1392 18.5225 26.0798 18.6713 25.9619L25.3002 20.7167C25.5512 20.5181 25.7023 20.1816 25.7023 19.8208C25.7023 19.4601 25.5512 19.1235 25.3002 18.9249ZM19.0734 23.0731V16.5697L23.1835 19.8209L19.0734 23.0731Z" fill="black"/>
</svg>
