<svg width="40" height="40" viewBox="0 0 40 40" fill="none" xmlns="http://www.w3.org/2000/svg">
<circle cx="20" cy="20" r="20" fill="white"/>
<path d="M14.1821 8.0039C14.1782 8.00781 14.0336 8.02734 13.8616 8.04492C12.5682 8.18164 11.4447 8.63671 10.4424 9.42969C10.1962 9.625 9.71554 10.0957 9.50843 10.3457C8.98871 10.9707 8.5823 11.7051 8.33612 12.459C8.17785 12.9453 8.10165 13.2988 8.03522 13.8652C8.00201 14.1406 8.00005 14.543 8.00005 20.4863C8.00005 27.4062 7.99419 26.9746 8.10751 27.6348C8.59207 30.4219 10.925 32.6191 13.7229 32.9277C13.8734 32.9434 14.0688 32.9668 14.1547 32.9766C14.3677 33.0039 26.6223 33.0039 26.8353 32.9766C26.9213 32.9668 27.1167 32.9434 27.2671 32.9277C29.8736 32.6406 32.1029 30.7031 32.7653 28.1465C32.8552 27.7949 32.9099 27.5039 32.9392 27.1953C32.9529 27.0723 32.9704 26.9062 32.9802 26.8281C33.0076 26.6328 33.0056 14.3691 32.9802 14.1582C32.9704 14.0723 32.947 13.877 32.9314 13.7266C32.8063 12.584 32.3413 11.4551 31.6125 10.5117C31.4073 10.2461 30.9697 9.78711 30.7254 9.58008C29.811 8.80468 28.7208 8.29101 27.5875 8.10546C26.9662 8.00195 27.3863 8.00781 20.5321 8.00195C17.0445 7.99804 14.1879 8 14.1821 8.0039ZM27.0737 10.1543C28.1444 10.2949 29.135 10.8262 29.8306 11.6387C30.364 12.2617 30.6961 12.9727 30.8446 13.8164C30.8779 14.0137 30.8798 14.293 30.8798 20.5059V26.9902L30.8349 27.2402C30.6668 28.168 30.2565 28.9629 29.6098 29.6074C28.9709 30.248 28.1952 30.6504 27.2554 30.832L27.0307 30.875L20.6416 30.8828C15.9464 30.8867 14.1958 30.8828 14.0375 30.8672C12.1911 30.6758 10.6573 29.3262 10.2314 27.5176C10.1141 27.0215 10.12 27.4258 10.12 20.5059C10.12 14.9277 10.1239 14.1426 10.1493 13.9395C10.3857 12.1289 11.7124 10.6582 13.4904 10.2363C13.9632 10.123 13.5744 10.1289 20.4794 10.127C26.0909 10.125 26.8705 10.1289 27.0737 10.1543Z" fill="black"/>
<path d="M27.0599 12.2169C26.5519 12.3478 26.1494 12.7579 26.0322 13.2619C25.9892 13.4494 25.9931 13.7501 26.042 13.9396C26.1553 14.379 26.4972 14.756 26.9212 14.9103C27.4526 15.1036 28.0056 14.9806 28.4081 14.5783C28.6914 14.297 28.8184 13.9884 28.8184 13.5861C28.8184 13.254 28.7285 12.9806 28.5351 12.7247C28.201 12.2853 27.5972 12.0763 27.0599 12.2169Z" fill="black"/>
<path d="M20.0847 14.318C18.4141 14.443 16.8901 15.2066 15.8077 16.4625C14.4986 17.982 14.0043 20.0348 14.479 21.9801C14.6881 22.8375 15.0926 23.6617 15.6494 24.3629C15.8585 24.6266 16.3821 25.152 16.6459 25.359C17.5349 26.0641 18.5665 26.5016 19.6959 26.6578C20.0163 26.7027 20.665 26.7164 21.0049 26.6891C22.7595 26.5406 24.3089 25.7027 25.4109 24.3043C26.1358 23.3844 26.5871 22.2223 26.6907 21.0055C26.718 20.6656 26.7044 20.0172 26.6594 19.6969C26.5031 18.568 26.0655 17.5367 25.3601 16.6481C25.153 16.3844 24.6274 15.859 24.3656 15.6539C23.2402 14.7652 21.8666 14.2906 20.4579 14.3082C20.3016 14.3102 20.1335 14.3141 20.0847 14.318ZM21.1163 16.2086C22.4098 16.3961 23.5665 17.1637 24.2288 18.2789C24.645 18.9762 24.8404 19.6813 24.8404 20.4957C24.8423 20.9918 24.7994 21.2906 24.6645 21.7496C24.223 23.2594 22.9197 24.4508 21.3742 24.7613C20.9229 24.8512 20.3055 24.8688 19.8893 24.8043C18.4258 24.5777 17.2242 23.691 16.5892 22.3707C16.2981 21.7633 16.1691 21.191 16.1691 20.5055C16.1691 19.8063 16.3 19.2359 16.6068 18.6109C17.0366 17.7281 17.7264 17.0387 18.6095 16.609C19.1175 16.3609 19.6412 16.2184 20.2117 16.1715C20.3914 16.1578 20.9033 16.1773 21.1163 16.2086Z" fill="black"/>
</svg>
